PathFileType	4	(X/Y/Z)	C:\Users\Basilio\Documents\Thesis Gigler\squatting_fais\c3dfiles\041\SLS_pre_back3\markers_experimental.trc
DataRate	CameraRate	NumFrames	NumMarkers	Units	OrigDataRate	OrigDataStartFrame	OrigNumFrames
200.000000	200.000000	4	62	mm	200.000000	1303	1490
Frame#	Time	FHD			LBHD			RBHD			C7			T10			CLAV			LSHO			LUUPA			LMUPA			LDUPA			LLEP			LMEP			LRAD			LUL			LRFIN			RSHO			RUPA1			RMUPA			RDUPA			RLEP			RMEP			RRAD			RUL			RUFIN			LASI			RASI			USACR			LSACR			RSACR			LTHI1			LTHI2			LTHI3			LTHI4			LLFC			LMFC			LTIB1			LTIB2			LTIB3			LTIB4			LLMAL			LMMAL			LHEE			LMT1			LMT2			LMT5			RTHI			RTHI2			RTHI3			RTHI4			RLFC			RMFC			RTIB1			RTIB2			RTIB3			RTIB4			RLMAL			RMMAL			RHEE			RMT1			RMT2			RMT5			*61			
		X1	Y1	Z1	X2	Y2	Z2	X3	Y3	Z3	X4	Y4	Z4	X5	Y5	Z5	X6	Y6	Z6	X7	Y7	Z7	X8	Y8	Z8	X9	Y9	Z9	X10	Y10	Z10	X11	Y11	Z11	X12	Y12	Z12	X13	Y13	Z13	X14	Y14	Z14	X15	Y15	Z15	X16	Y16	Z16	X17	Y17	Z17	X18	Y18	Z18	X19	Y19	Z19	X20	Y20	Z20	X21	Y21	Z21	X22	Y22	Z22	X23	Y23	Z23	X24	Y24	Z24	X25	Y25	Z25	X26	Y26	Z26	X27	Y27	Z27	X28	Y28	Z28	X29	Y29	Z29	X30	Y30	Z30	X31	Y31	Z31	X32	Y32	Z32	X33	Y33	Z33	X34	Y34	Z34	X35	Y35	Z35	X36	Y36	Z36	X37	Y37	Z37	X38	Y38	Z38	X39	Y39	Z39	X40	Y40	Z40	X41	Y41	Z41	X42	Y42	Z42	X43	Y43	Z43	X44	Y44	Z44	X45	Y45	Z45	X46	Y46	Z46	X47	Y47	Z47	X48	Y48	Z48	X49	Y49	Z49	X50	Y50	Z50	X51	Y51	Z51	X52	Y52	Z52	X53	Y53	Z53	X54	Y54	Z54	X55	Y55	Z55	X56	Y56	Z56	X57	Y57	Z57	X58	Y58	Z58	X59	Y59	Z59	X60	Y60	Z60	X61	Y61	Z61	X62	Y62	Z62	

1304	6.515000000000001	-129.1674346923828	1775.653930664063	-1082.020263671875	-305.5309753417969	1691.274536132813	-1142.684448242188	-281.1926269531251	1714.189819335938	-993.1213378906252	-333.0075378417969	1565.537353515625	-1074.246337890625	-379.6974487304688	1248.011352539063	-1054.95166015625	-177.8377227783203	1490.500122070313	-1059.920776367188	-242.7863769531251	1538.939208984375	-1245.683349609375	-338.2314758300782	1358.349975585938	-1314.155639648438	-318.3836975097657	1316.242919921875	-1296.968017578125	-373.1170043945313	1297.842407226563	-1317.748046875	-396.3670043945314	1255.2021484375	-1311.286499023438	-419.5154418945314	1242.337524414063	-1228.277954101563	-429.1903381347657	980.7752075195315	-1255.989013671875	-468.4420166015626	1001.227294921875	-1317.532104492188	-459.4933166503907	906.420104980469	-1254.99951171875	-258.0042114257813	1553.0712890625	-890.256286621094	-421.4892883300782	1406.637817382813	-822.0642700195315	-388.514617919922	1373.469604492188	-801.5288696289065	-438.3152465820314	1341.169555664063	-799.9827270507815	-454.4944763183595	1301.025146484375	-793.5679931640627	-462.541473388672	1280.003295898438	-878.730651855469	-535.9118652343751	1044.83984375	-795.971862792969	-586.9920043945314	1087.690185546875	-756.9927368164064	-585.7905883789064	976.7320556640627	-789.4334716796877	-206.9691925048829	1044.771606445313	-1129.175048828125	-247.2111968994141	1056.379516601563	-907.653991699219	-395.3677673339845	1136.244995117188	-1049.70654296875	-407.6421813964845	1110.169677734375	-1077.147216796875	-419.0921630859376	1112.967163085938	-1023.515014648438	-314.6547546386719	841.9697265625002	-1200.529296875	-281.2668762207032	765.6668090820314	-1185.157470703125	-235.5841369628907	769.6643066406252	-1168.9599609375	-310.0507507324219	713.3847656250001	-1178.808715820313	-298.3000488281251	533.3706665039064	-1151.760620117188	-315.2384643554688	519.9599609375001	-1032.697875976563	-293.0559997558594	342.6148071289063	-1084.133544921875	-331.4149169921876	299.4075622558594	-1151.164184570313	-297.7384948730469	294.2973632812501	-1119.89013671875	-313.7387390136719	219.5752716064454	-1085.719848632813	-372.6701965332032	128.1782836914063	-1130.229614257813	-346.3063049316407	134.080062866211	-1044.357421875	-442.2760314941407	111.9755477905274	-1095.568481445313	-238.2898406982422	60.04579544067384	-1048.597534179688	-229.5231018066407	55.13175201416017	-1094.017456054688	-270.9019165039063	44.31530761718751	-1151.8642578125	-334.1269836425782	796.4338989257815	-825.272399902344	-286.2896118164063	751.2940063476564	-812.1805419921877	-253.3079681396485	759.2502441406251	-814.0901489257815	-295.7425842285157	667.6625366210939	-824.346374511719	-286.6308288574219	557.4107666015626	-820.8005371093752	-248.196762084961	525.9091186523439	-926.1617431640627	-314.3286132812501	393.5414428710939	-813.8272094726565	-419.640350341797	352.3889465332032	-826.0029907226565	-378.6445617675782	334.3068542480469	-812.2403564453127	-368.4083557128907	278.5449829101563	-829.9490356445315	-462.4297790527345	183.5543975830078	-829.913757324219	-408.6661987304689	187.94921875	-897.7300415039065	-514.0380859375001	146.0418395996094	-892.063415527344	-303.6213073730469	111.7796401977539	-843.778747558594	-312.9483032226563	117.5526199340821	-792.476257324219	-369.9035644531251	102.7009506225586	-760.1279907226564	-4216.923828125001	853.1397094726565	-3944.596679687501	
1305	6.52	-129.727767944336	1775.611938476563	-1080.991943359375	-306.0390319824219	1691.328857421875	-1141.495971679688	-281.6665039062501	1714.200927734375	-991.695739746094	-333.6137390136719	1565.492553710938	-1073.11962890625	-380.0019836425782	1247.95458984375	-1053.991943359375	-178.6031951904297	1490.459228515625	-1058.651000976563	-243.2055053710938	1538.869750976563	-1244.5380859375	-336.8861999511719	1357.808227539063	-1313.682739257813	-316.6777343750001	1315.801147460938	-1296.554809570313	-371.3621520996094	1296.969604492188	-1317.781860351563	-394.3393859863282	1254.211181640625	-1311.695556640625	-417.7484436035157	1240.638671875	-1228.704467773438	-422.7778930664064	979.9920043945315	-1258.514892578125	-463.6270751953126	999.5081787109377	-1319.44580078125	-452.1313476562501	903.7417602539065	-1258.215942382813	-258.4123229980469	1552.776611328125	-889.2685546875002	-420.952606201172	1405.096435546875	-820.4556884765627	-387.395965576172	1372.124267578125	-800.0881347656252	-437.101776123047	1339.691772460938	-798.522399902344	-453.228240966797	1299.424438476563	-791.9433593750002	-461.397186279297	1278.369018554688	-877.186462402344	-532.5797729492189	1042.610961914063	-794.2561035156252	-583.9523925781251	1085.05322265625	-755.2152709960939	-581.5374755859376	973.695983886719	-787.208435058594	-207.2698364257813	1044.913940429688	-1128.790161132813	-247.053207397461	1056.373046875	-907.001403808594	-395.290008544922	1136.169189453125	-1048.807373046875	-409.1403198242189	1110.523681640625	-1076.194702148438	-418.3033752441407	1111.958984375	-1022.243957519531	-315.0269775390626	842.0483398437502	-1199.941040039063	-281.5685119628907	765.7249145507814	-1184.588134765625	-235.9340515136719	769.765563964844	-1168.427978515625	-310.1605224609376	713.4906616210939	-1178.155151367188	-298.5222473144532	533.4539184570314	-1151.4248046875	-315.0182189941407	519.9899902343751	-1032.65869140625	-293.0476074218751	342.5384521484376	-1083.99609375	-331.3796691894532	299.4011840820313	-1151.008666992188	-297.9892578125001	294.0837402343751	-1119.714965820313	-313.6652221679688	219.6387786865235	-1085.64697265625	-372.6953735351563	128.2203521728516	-1130.20556640625	-346.3098449707032	134.0561065673828	-1044.322875976563	-441.7982482910157	111.836784362793	-1095.636596679688	-239.0530548095704	59.64950561523439	-1048.99365234375	-229.5350799560547	55.17003250122072	-1093.934692382813	-270.9653930664063	44.23016357421876	-1151.75390625	-333.4464416503907	796.184020996094	-824.8128051757815	-285.6446533203126	750.8905029296876	-811.9895019531252	-252.6148223876954	758.9226074218751	-814.0692138671877	-295.0056762695313	667.2742309570314	-824.4995117187502	-285.5501708984376	556.8923950195314	-820.776550292969	-247.9967498779297	525.7473754882814	-926.4734497070315	-312.2019653320313	392.9394836425782	-813.4962158203127	-416.9248657226564	350.9508666992188	-824.5405273437502	-375.5332336425782	332.9916076660157	-811.3576660156252	-365.2406616210938	277.4888305664063	-828.9895019531252	-458.3130187988282	181.365966796875	-828.0662841796877	-405.3146362304689	186.3621368408203	-896.5374755859377	-510.5211486816407	144.0853118896485	-889.7226562500002	-299.3872985839844	109.7903594970703	-843.9447021484377	-308.2988586425782	115.6024856567383	-792.8458251953127	-364.5671081542969	100.2299194335938	-759.7189331054689	-4216.891601562501	853.0891723632815	-3944.510498046876	
1306	6.525	-130.3464660644532	1775.890502929688	-1080.099975585938	-306.5356750488282	1691.332153320313	-1140.346557617188	-282.1079101562501	1714.3486328125	-990.7083740234377	-334.1344909667969	1565.457763671875	-1072.03271484375	-380.3480224609376	1247.848510742188	-1053.040161132813	-179.3759155273438	1490.566772460938	-1057.659545898438	-243.6573944091797	1538.886840820313	-1243.382690429688	-335.5363769531251	1357.122680664063	-1313.13427734375	-315.1738586425782	1315.286987304688	-1296.139038085938	-369.8449401855469	1296.276611328125	-1317.991577148438	-392.0975341796876	1253.303344726563	-1312.194702148438	-415.9863281250001	1238.980224609375	-1229.405151367188	-417.472137451172	978.3665161132815	-1260.598876953125	-458.4977111816407	997.7442626953127	-1321.320678710938	-444.2386779785157	901.3491821289065	-1261.775268554688	-259.0788574218751	1552.436401367188	-888.1126708984377	-420.1782531738282	1403.602172851563	-818.833923339844	-386.6310119628907	1370.82470703125	-798.8648681640627	-435.8626098632814	1337.87255859375	-796.9715576171877	-451.702117919922	1297.59912109375	-790.4990234375002	-460.2749023437501	1276.602783203125	-875.7351684570315	-528.9933471679689	1040.290771484375	-792.4938964843752	-580.6121215820314	1082.186401367188	-753.3895874023439	-576.6282958984376	970.8779296875002	-784.9093017578127	-207.5979156494141	1045.038208007813	-1128.25634765625	-247.0183868408204	1056.253051757813	-906.433044433594	-394.9539489746095	1135.92333984375	-1047.784301757813	-409.3991088867189	1110.429809570313	-1075.229736328125	-417.3345947265626	1111.672241210938	-1020.819702148438	-315.4616699218751	842.158874511719	-1199.341430664063	-281.8597412109376	765.8669433593751	-1183.723022460938	-236.1649627685547	769.8843994140627	-1167.919555664063	-310.3560180664063	713.5605468750001	-1177.792724609375	-298.6360168457032	533.5080566406251	-1151.179443359375	-315.0827026367188	519.9725952148439	-1032.300659179688	-293.0636901855469	342.5791015625001	-1083.885131835938	-331.4969177246094	299.4677429199219	-1150.882568359375	-297.9740600585938	294.0702209472657	-1119.655151367188	-313.7026062011719	219.5612487792969	-1085.534423828125	-372.6714172363282	128.2834625244141	-1130.111694335938	-346.3051757812501	134.0511779785157	-1044.275268554688	-442.1546325683595	112.2298126220703	-1095.55712890625	-239.0151062011719	59.65641403198244	-1048.991455078125	-229.5506286621094	55.14107513427736	-1093.950073242188	-270.5425415039063	44.09432220458985	-1151.788452148438	-332.7273559570313	795.8720703125002	-824.3742675781252	-285.0698852539063	750.7686767578126	-812.0454101562502	-252.1462554931641	758.6945190429689	-814.0952148437502	-294.4703674316407	667.0149536132814	-824.5809326171877	-284.3360900878907	556.3627319335939	-820.9355468750002	-247.7772521972657	525.6052856445314	-926.7747802734377	-309.7608642578126	392.3132324218751	-813.1275634765627	-414.0972900390626	349.3517456054688	-822.9343261718752	-372.6711425781251	331.7892150878907	-810.210388183594	-361.7567749023438	276.2371520996094	-828.3154907226565	-454.3509521484376	179.4987030029297	-826.3078613281252	-401.8260498046876	184.7541809082032	-895.4694824218752	-506.910125732422	142.3837280273438	-887.518981933594	-295.6215820312501	108.2862777709961	-844.6618652343752	-303.8840332031251	113.4571228027344	-793.1570434570315	-359.6061706542969	98.02906036376956	-759.4801635742189	-4216.906738281251	853.1362915039065	-3944.597167968751	
1307	6.53	-131.0504913330078	1775.85693359375	-1078.865966796875	-307.1172485351563	1691.40625	-1139.10107421875	-282.4968566894532	1714.319213867188	-989.5284423828127	-334.7001647949219	1565.378784179688	-1070.974243164063	-380.5272216796876	1247.755249023438	-1051.9658203125	-179.5084686279297	1490.660766601563	-1056.951049804688	-244.0836791992188	1538.789672851563	-1242.26611328125	-334.3709411621094	1356.670166015625	-1312.851196289063	-313.4899291992188	1314.80712890625	-1295.672119140625	-367.8180847167969	1295.423095703125	-1318.095581054688	-390.058807373047	1252.265380859375	-1312.648315429688	-414.1163635253907	1237.153442382813	-1229.906005859375	-411.9754028320314	976.811706542969	-1262.689575195313	-453.3858947753907	996.1704101562502	-1323.272827148438	-435.3993530273439	898.593688964844	-1265.983764648438	-259.6027221679688	1552.149047851563	-887.0670166015627	-419.4454650878907	1401.872680664063	-817.308532714844	-385.5223693847657	1369.319702148438	-797.4348754882815	-434.6014099121095	1336.068237304688	-795.1582031250002	-450.1739807128907	1295.846801757813	-788.9085693359377	-458.8339843750001	1274.740478515625	-874.1568603515627	-524.9129028320314	1037.805053710938	-790.7759399414065	-576.8374023437501	1079.246948242188	-751.5323486328126	-571.6562500000001	967.7955322265627	-782.4655761718752	-208.1201629638672	1045.181518554688	-1127.4091796875	-246.9230346679688	1056.298950195313	-905.8015136718752	-397.656951904297	1136.964721679688	-1047.030517578125	-409.7872924804689	1110.30908203125	-1074.284301757813	-420.1622314453126	1113.256469726563	-1020.606811523438	-315.6780090332032	842.207946777344	-1198.796020507813	-282.0728454589844	766.0748901367189	-1183.361572265625	-236.3545379638672	770.0343017578127	-1167.536865234375	-310.5377807617188	713.6362304687501	-1177.11376953125	-298.7879333496094	533.6035156250001	-1150.83740234375	-315.0589904785157	519.8807373046876	-1032.01171875	-293.1243591308594	342.5281677246094	-1083.666015625	-331.4831237792969	299.5139465332032	-1150.628540039063	-297.9454040527344	294.0859375000001	-1119.537719726563	-313.7430725097657	219.4803161621094	-1085.517944335938	-372.6673278808594	128.2841186523438	-1130.066040039063	-346.3056030273438	133.9786224365235	-1044.228881835938	-442.1887817382814	112.2201538085938	-1095.534301757813	-239.0116119384766	59.6571388244629	-1048.963989257813	-229.5502014160157	55.12816619873048	-1093.90380859375	-270.9649963378907	44.2713851928711	-1151.787963867188	-331.9977111816407	795.609802246094	-823.8679809570315	-284.1469726562501	750.4967041015626	-811.9332275390627	-251.3653717041016	758.4641113281251	-814.1731567382815	-293.8986816406251	666.7109985351564	-824.4773559570315	-283.7100219726563	556.1770629882814	-820.829772949219	-247.5881958007813	525.4897460937501	-927.1347656250002	-307.4120483398438	391.691131591797	-813.0430908203127	-411.5913696289064	347.9685974121094	-821.413269042969	-369.7160644531251	330.6282043457032	-809.139343261719	-358.6193542480469	275.1809387207032	-827.6045532226565	-450.2974243164064	177.6351165771485	-824.705505371094	-398.9758911132814	183.1618347167969	-894.2796630859377	-503.7063293457032	140.8128967285157	-885.5845336914065	-291.5968017578126	106.0068817138672	-845.0646972656252	-299.1505432128907	111.7460479736328	-792.9865722656252	-354.8642272949219	95.5880813598633	-759.0757446289064	-4216.692871093751	853.135437011719	-3944.775146484376	
